<svg t="1623686110997" class="icon" viewBox="0 0 1024 1024" version="1.1" xmlns="http://www.w3.org/2000/svg" p-id="1844" width="25" height="25"><path d="M916.48 507.904c0 50.176-9.216 98.816-27.136 144.384-1.024-6.144-2.048-11.776-3.584-17.408-1.536-5.12-3.584-10.24-5.632-15.36-4.608-9.728-10.24-18.944-17.408-26.624l-2.048-2.56c-4.608-4.608-8.704-9.216-13.824-12.8-2.56-2.048-5.12-4.096-7.68-5.632-1.536-1.536-3.072-3.072-5.12-4.096 3.584-19.456 5.632-39.424 5.632-59.904 0-179.2-146.944-324.608-327.68-324.608S184.32 328.704 184.32 507.904c0 20.48 2.048 40.448 5.632 59.904-2.048 1.536-3.584 3.072-5.12 4.608-2.56 1.536-5.12 3.584-7.168 5.632-5.632 4.608-11.264 9.728-15.872 15.36-7.168 8.192-12.8 16.896-17.408 26.624-2.56 5.12-4.608 10.24-5.632 15.36-2.048 5.632-3.072 11.264-4.096 16.896-17.92-45.568-27.136-94.208-27.136-144.384 0-107.008 41.984-207.36 118.272-283.136C302.592 148.992 403.968 107.52 512 107.52c222.72 0 404.48 179.712 404.48 400.384zM288.768 746.496v2.048l1.024-1.024-1.024-1.024z" fill="#2D3545" p-id="1845"></path><path d="M889.344 653.312v-0.512c-1.024-6.144-2.048-11.776-3.584-17.408-1.536-5.12-3.584-10.24-5.632-15.36-4.608-9.728-10.24-18.944-17.408-26.624l-2.048-2.56c-4.608-4.608-8.704-9.216-13.824-12.8-2.56-2.048-5.12-4.096-7.68-5.632-19.456-13.312-43.008-20.48-67.072-20.48-65.536 0-118.784 52.736-118.784 117.248v130.048c0 64.512 53.248 117.248 118.784 117.248 65.536 0 118.784-52.736 118.784-117.248v-130.048c-0.512-5.632-1.024-10.752-1.536-15.872z m-55.296 145.92c0 33.792-28.16 61.44-62.464 61.44-34.304 0-61.952-27.648-61.952-61.44v-130.048c0-33.792 28.16-61.952 61.952-61.952 34.304 0 62.464 27.648 62.464 61.952v130.048zM251.904 551.424c-24.064 0-47.616 7.168-67.584 20.992-2.56 1.536-5.12 3.584-7.168 5.632-5.632 4.608-11.264 9.728-15.872 15.36-7.168 8.192-12.8 16.896-17.408 26.624-2.56 5.12-4.608 10.24-5.632 15.36-2.048 5.632-3.072 11.264-4.096 16.896v1.024c-0.512 4.608-1.024 9.728-1.024 14.848v131.072c0 64.512 53.248 117.248 118.784 117.248 65.536 0 118.272-52.736 118.272-117.248v-130.048c0-65.024-53.248-117.76-118.272-117.76z m61.952 247.808c0 33.792-28.16 61.44-61.952 61.44-34.304 0-62.464-27.648-62.464-61.44v-130.048c0-33.792 28.16-61.952 62.464-61.952 34.304 0 61.952 27.648 61.952 61.952v130.048zM471.04 827.392c-14.336 0-26.112-11.776-26.112-26.112v-152.064c0-14.336 11.776-26.112 26.112-26.112s26.112 11.776 26.112 26.112v152.064c0 14.336-11.776 26.112-26.112 26.112zM553.472 793.6c-14.336 0-26.112-11.776-26.112-26.112v-83.968c0-14.336 11.776-26.112 26.112-26.112s26.112 11.776 26.112 26.112v83.968c0 14.336-11.776 26.112-26.112 26.112z" fill="#FF9A22" p-id="1846"></path></svg>