<svg t="1623687319408" class="icon" viewBox="0 0 1024 1024" version="1.1" xmlns="http://www.w3.org/2000/svg" p-id="4114" width="26" height="26" ><path d="M915.877979 918.701792 108.119975 918.701792c-12.046361 0-21.792329-9.766434-21.792329-21.793352l0-42.831504c0-12.025894 9.745968-21.770839 21.792329-21.770839l807.758004 0c12.046361 0 21.793352 9.744945 21.793352 21.770839l0 42.831504C937.671331 908.935358 927.925363 918.701792 915.877979 918.701792zM535.109836 784.556583c-6.108115 6.086625-14.934131 7.612375-22.50455 4.832052-7.570419 2.781346-16.396435 1.255597-22.503527-4.832052L217.545176 511.979534c-8.365528-8.366551-8.365528-21.938662 0-30.305213l30.283724-30.284747c8.365528-8.365528 21.918195-8.365528 30.284747 0l191.743022 191.764512L469.856669 126.024252c0-11.461029 9.28548-20.726044 20.74651-20.726044l42.833551 0c11.418051 0 20.704554 9.265014 20.704554 20.726044l0 518.323009 192.95564-192.957687c8.367575-8.365528 21.919219-8.365528 30.28577 0l30.283724 30.284747c8.366551 8.365528 8.366551 21.938662 0 30.305213L535.109836 784.556583z" p-id="4115" fill="#2c2c2c"></path></svg>