<svg t="1623686932343" class="icon" viewBox="0 0 1024 1024" version="1.1" xmlns="http://www.w3.org/2000/svg" p-id="2489" width="32" height="32" ><path d="M821.536 387.008c0-22.496-2.976-42.368-8.96-59.584-5.984-17.216-13.632-30.912-22.912-41.056a110.08 110.08 0 0 0-33.984-24.8 150.496 150.496 0 0 0-39.168-12.896c-12.8-2.24-26.4-3.328-40.864-3.328-14.432 0-30.016 3.52-46.688 10.624-16.64 7.072-32 15.968-46.048 26.656-14.016 10.688-26.048 20.704-36.032 30.016-10.016 9.28-18.336 17.824-25.024 25.6a24.96 24.96 0 0 1-20.416 9.184 24.96 24.96 0 0 1-20.416-9.184c-6.688-7.776-15.04-16.32-25.024-25.6-9.984-9.312-22.016-19.328-36.032-30.016a213.056 213.056 0 0 0-46.08-26.656c-16.64-7.104-32.224-10.624-46.656-10.624-14.464 0-28.064 1.088-40.864 3.328-12.8 2.24-25.824 6.528-39.168 12.896-13.344 6.4-24.64 14.656-33.952 24.8-9.312 10.144-16.96 23.84-22.944 41.056-5.984 17.216-8.96 37.088-8.96 59.584 0 46.656 25.984 95.968 77.952 147.904l242.144 233.344 241.728-232.928c52.256-52.224 78.368-101.664 78.368-148.32z m53.344 0c0 61.376-31.808 123.872-95.456 187.52l-259.648 249.984a24.96 24.96 0 0 1-18.336 7.488 24.96 24.96 0 0 1-18.336-7.488L223.04 573.664a137.696 137.696 0 0 1-11.488-10.816c-4.864-5.024-12.544-14.112-23.104-27.296-10.56-13.216-20.032-26.752-28.352-40.64a252.288 252.288 0 0 1-22.304-50.4A182.464 182.464 0 0 1 128 387.008c0-61.12 17.632-108.896 52.928-143.36C216.224 209.248 264.992 192 327.232 192c17.216 0 34.784 2.976 52.704 8.96 17.92 5.984 34.592 14.016 50.016 24.16s28.704 19.648 39.808 28.544c11.136 8.896 21.664 18.336 31.68 28.352 10.016-10.016 20.576-19.456 31.68-28.352s24.384-18.4 39.808-28.544a213.376 213.376 0 0 1 50.016-24.16c17.92-5.984 35.488-8.96 52.704-8.96 62.24 0 111.04 17.216 146.304 51.68 35.296 34.432 52.928 82.208 52.928 143.328z" fill="#222222" p-id="2490"></path></svg>