<svg t="1623687842067" class="icon" viewBox="0 0 1024 1024" version="1.1" xmlns="http://www.w3.org/2000/svg" p-id="7925" width="40" height="40">
                <path d="M975.36 316.928H48.64c-27.136 0-48.64 22.016-48.64 48.64v292.352c0 27.136 22.016 48.64 48.64 48.64h926.72c27.136 0 48.64-22.016 48.64-48.64V365.568c0-26.624-22.016-48.64-48.64-48.64z m24.064 341.504c0 13.312-10.752 24.576-24.576 24.576H48.64c-13.312 0-24.576-10.752-24.576-24.576V365.568c0-13.312 10.752-24.576 24.576-24.576h926.72c13.312 0 24.576 10.752 24.576 24.576v292.864z"
                    fill="#2c2c2c" p-id="7926"></path>
                <path d="M898.56 503.296l-15.872-15.872-67.584 66.56-67.584-66.56-15.872 15.872 83.456 81.92z" fill="#2c2c2c" p-id="7927"></path>
                <path d="M195.584 536.576c-4.096-8.192-13.312-23.04-21.504-35.328V634.88h-24.576v-122.88c-8.704 26.112-19.968 50.688-31.744 66.56-2.56-6.656-8.704-17.92-13.312-24.064 15.872-19.968 31.744-56.32 39.936-88.064h-33.792v-23.04h38.912V388.608H174.08v54.784h32.768v23.04H174.08v6.656c8.192 8.704 30.72 37.376 35.328 44.032l-13.824 19.456z m53.76-9.728c-7.68 30.72-20.992 62.464-35.328 82.944-4.096-3.584-14.336-10.24-19.968-13.312 14.336-18.432 26.112-47.616 32.768-75.264l22.528 5.632z m41.984-32.768V604.16c0 13.312-2.56 20.48-10.752 24.576-8.704 4.096-20.992 4.608-39.936 4.608-1.024-7.168-4.096-18.432-7.68-25.6 12.8 0.512 24.576 0.512 27.648 0.512 3.584 0 4.608-1.024 4.608-4.608V494.08H210.944V471.04H353.28v23.552H291.328z m47.616-62.976H222.72v-23.552h116.224v23.552z m-12.8 89.6c12.288 26.112 24.576 60.416 29.184 81.408l-23.04 8.704c-3.584-21.504-14.848-56.32-27.136-82.944l20.992-7.168z m87.04-48.128c-6.656-16.384-22.016-43.008-34.304-62.464l22.016-10.24c12.8 18.944 29.184 44.544 35.84 60.416l-23.552 12.288zM378.88 611.328c11.776-22.016 27.648-57.856 39.936-90.112l23.04 12.288c-11.776 30.208-25.088 63.488-36.864 89.6l-26.112-11.776z m243.2 5.632H485.376v18.432h-23.04v-148.48c-7.168 10.752-15.36 20.48-23.552 28.672-3.584-4.608-12.288-13.824-17.92-18.432 26.624-25.088 49.152-65.024 62.464-106.496l23.04 6.144c-4.096 13.312-9.728 26.112-15.36 38.912h54.784c-4.096-10.24-12.288-25.088-18.944-35.84l20.992-9.728c8.192 11.776 17.408 27.136 21.504 37.888l-14.848 7.68h61.952v21.504h-54.784v31.232h49.664v21.504h-49.664v30.72h49.152v21.504h-49.152v31.744h59.392v23.04z m-83.968-159.744H485.376v31.232h52.736v-31.232z m0 53.248H485.376v30.72h52.736v-30.72z m-52.736 83.968h52.736v-31.744H485.376v31.744z"
                    fill="#2c2c2c" p-id="7928"></path>
                </svg>