<svg t="1623688011107" class="icon" viewBox="0 0 1024 1024" version="1.1" xmlns="http://www.w3.org/2000/svg" p-id="8838" width="25" height="25" ><path d="M512 0a512 512 0 1 0 512 512A512 512 0 0 0 512 0z m0 731.237598a219.237598 219.237598 0 1 1 219.237598-219.237598 219.906005 219.906005 0 0 1-219.237598 219.237598z m0-365.618799a146.381201 146.381201 0 1 0 146.381201 146.381201 146.381201 146.381201 0 0 0-146.381201-146.381201z m0 219.237598a72.856397 72.856397 0 1 1 72.856397-72.856397 73.524804 73.524804 0 0 1-72.856397 72.856397z" fill="#2c2c2c" p-id="8839"></path></svg>