<svg t="1623675304984" class="icon" viewBox="0 0 1024 1024" version="1.1" xmlns="http://www.w3.org/2000/svg" p-id="4297" width="15" height="15" ><path d="M509.786077 396.197554c-30.789237 0-55.747675 24.962531-55.747675 55.747675 0 30.788214 24.958438 55.749722 55.747675 55.749722 30.78719 0 55.748698-24.961508 55.748698-55.749722C565.534775 421.159062 540.573267 396.197554 509.786077 396.197554L509.786077 396.197554zM286.79026 396.197554c-30.788214 0-55.749722 24.962531-55.749722 55.747675 0 30.788214 24.961508 55.749722 55.749722 55.749722 30.78719 0 55.748698-24.961508 55.748698-55.749722C342.539982 421.159062 317.57745 396.197554 286.79026 396.197554L286.79026 396.197554zM509.786077 61.701271c-246.309802 0-445.992657 174.73465-445.992657 390.244982 0 123.174344 65.370847 232.850256 167.247118 304.358893l0 197.383486 195.380876-118.546953c27.04496 4.461615 54.852282 7.048533 83.364663 7.048533 246.312872 0 445.995727-174.707021 445.995727-390.243959C955.781804 236.436944 756.098949 61.701271 509.786077 61.701271L509.786077 61.701271zM509.786077 786.441513c-32.555463 0-63.99757-3.781116-94.227058-10.235109l-131.218554 78.888721 1.75497-129.300878c-100.610442-60.485583-166.553317-160.496367-166.553317-273.846972 0-184.725188 174.721347-334.496284 390.243959-334.496284 215.523635 0 390.243959 149.771095 390.243959 334.496284C900.030036 636.697023 725.309712 786.441513 509.786077 786.441513L509.786077 786.441513zM732.784964 396.197554c-30.789237 0-55.748698 24.962531-55.748698 55.747675 0 30.788214 24.960485 55.749722 55.748698 55.749722 30.788214 0 55.747675-24.961508 55.747675-55.749722C788.531616 421.159062 763.570107 396.197554 732.784964 396.197554L732.784964 396.197554z" p-id="4298"></path></svg>