<svg t="1623673514608" class="icon" viewBox="0 0 1024 1024" version="1.1" xmlns="http://www.w3.org/2000/svg" p-id="5096" width="28" height="28"><path d="M935.498766 193.401956a64.269992 64.269992 0 0 0-47.166526-20.687353h-68.79785V43.294647H204.641605v129.419956H135.651761A63.998 63.998 0 0 0 71.861754 241.768445a440.802225 440.802225 0 0 0 140.315615 287.575013q13.43958 12.447611 27.759133 23.631262a307.750383 307.750383 0 0 0 220.905097 159.995v110.204556h102.3968v-110.156558a307.750383 307.750383 0 0 0 221.001094-160.186994q14.191557-11.19965 27.567138-23.471266a440.802225 440.802225 0 0 0 140.315615-287.575014 63.838005 63.838005 0 0 0-16.62348-48.382488zM135.651761 236.696603h68.989844v173.162589q0 7.631762 0.367988 15.167526A376.32424 376.32424 0 0 1 135.651761 236.696603z m683.434643 188.15412q0.351989-7.455767 0.367988-14.991531V236.696603h68.79785a376.32424 376.32424 0 0 1-69.149839 188.15412zM699.682135 876.612606H324.445861a63.998 63.998 0 0 0-63.998 63.998V1023.968001h503.232274v-83.357395a63.998 63.998 0 0 0-63.998-63.998z" fill="#2674FD" p-id="5097"></path><path d="M812.670604 0H211.457392A51.326396 51.326396 0 0 0 160.130996 51.326396a51.326396 51.326396 0 0 0 51.326396 51.310397h601.213212a51.326396 51.326396 0 0 0 51.326396-51.326396A51.326396 51.326396 0 0 0 812.670604 0zM609.236961 819.174401H414.939033a59.614137 59.614137 0 0 0-59.614137 59.614137h313.478204A59.614137 59.614137 0 0 0 609.236961 819.174401zM666.259179 318.39005l-82.365426-7.519765a18.783413 18.783413 0 0 1-15.071529-10.271679l-43.902628-87.389269a18.783413 18.783413 0 0 0-33.950939 0.799975l-38.206806 85.869317a18.783413 18.783413 0 0 1-15.423518 11.071654L356.268867 318.39005a18.783413 18.783413 0 0 0-9.199713 33.966939l62.622043 44.7986a18.783413 18.783413 0 0 1 6.687791 21.75932l-29.279085 79.533514A18.783413 18.783413 0 0 0 413.419081 521.583701l86.3973-45.198588a18.783413 18.783413 0 0 1 17.167463-0.127996l91.309147 46.030562a18.783413 18.783413 0 0 0 25.999187-23.487267l-30.39905-79.533514a18.783413 18.783413 0 0 1 6.847786-22.159308l64.525984-44.686603a18.783413 18.783413 0 0 0-9.007719-34.030937z" fill="#FFE41F" p-id="5098"></path></svg>