<svg t="1623673402386" class="icon" viewBox="0 0 1024 1024" version="1.1" xmlns="http://www.w3.org/2000/svg" p-id="3893" width="32" height="32"><path d="M662 311.28m-184.43 0a184.43 184.43 0 1 0 368.86 0 184.43 184.43 0 1 0-368.86 0Z" fill="#279ACC" p-id="3894"></path><path d="M393.633742 470.636262m31.544034 31.544033l-0.007071-0.007071q31.544034 31.544034 0 63.088067l-37.809 37.809q-31.544034 31.544034-63.088067 0l0.007071 0.007071q-31.544034-31.544034 0-63.088067l37.809-37.809q31.544034-31.544034 63.088067 0Z" fill="#279ACC" p-id="3895"></path><path d="M662.64 522.49c-116.47 0-211.22-94.75-211.22-211.2s94.75-211.22 211.22-211.22 211.21 94.75 211.21 211.22-94.75 211.2-211.21 211.2z m0-368.86c-86.93 0-157.64 70.72-157.64 157.66s70.73 157.64 157.66 157.64 157.65-70.72 157.65-157.64-70.74-157.66-157.67-157.66zM562.62 942.29c-9.15-29.19-19.53-54.65-39.87-77.69-11.68-13.22-50.17-59.28-69.36-52.72-11.91 4.12-16.39 54.75-17.94 66.39-2.05 15.8-3.84 30.92-16.74 42-30.63 26.22-77.47-4.93-103.63-23.15-40.38-28.12-72.72-64.57-96.83-107.37-15.83-28.1 27.38-53.35 43.21-25.26 13.59 24.13 29.64 46 49.63 65.24 9.35 9 54.34 51.93 70.65 48.17 6.75-1.55 11.7-49.54 15.4-60.27 6.13-17.76 15.28-39.46 32.06-49.81 35.12-21.66 80.58 13.88 104.81 36.95 38.28 36.46 61.06 73.81 76.87 124.21 9.65 30.8-38.64 44-48.26 13.31z" fill="#303030" p-id="3896"></path><path d="M282.46 813.29A90.6 90.6 0 0 1 218 786.57l-31.24-31.24a91.3 91.3 0 0 1-0.74-128.2l268.89-311.48a26.78 26.78 0 1 1 40.53 35L224.6 664.24a37.69 37.69 0 0 0 0 53.22l31.24 31.24c14.23 14.23 39 14.23 53.21 0l1.44-1.34 312.15-269.5a26.79 26.79 0 0 1 35 40.55l-311.46 268.9a90.54 90.54 0 0 1-63.72 25.98z" fill="#303030" p-id="3897"></path><path d="M416.27 620.28a63.12 63.12 0 0 1-44.76-18.49 63.38 63.38 0 0 1 0-89.52l31-31A63.3 63.3 0 1 1 492 570.81l-31 31a63.13 63.13 0 0 1-44.73 18.47z m-6.88-56.37a9.73 9.73 0 0 0 13.77 0l30.95-31a9.74 9.74 0 0 0-13.77-13.77l-31 31a9.76 9.76 0 0 0 0 13.78z" fill="#303030" p-id="3898"></path></svg>